# xmcd
#
# Track frame offsets:
#	150
#	9841
#	21310
#	32719
#	42949
#	55506
#	67041
#	79313
#	91936
#	105320
#	116548
#	129014
#	141410
#	153372
#	165466
#	179155
#	193708
#	205601
#	217832
#	230674
#
# Disc length: 3234 seconds
#
# Revision: 0
# Processed by: cddbd v1.4PL0 Copyright (c) Steve Scherf et al.
# Submitted via: EasyCDDAExtractor 4.6.0.1
#
DISCID=040ca014
DTITLE=Sam Lightning Hopkins - Jackstropper Blues CD1
DYEAR=2001
DGENRE=Blues
TTITLE0=Feel so bad
TTITLE1=Can`t do like you used to
TTITLE2=Let me play with your poodle
TTITLE3=Down baby
TTITLE4=Fast mail rambler
TTITLE5=Honey babe
TTITLE6=Mama`s baby child
TTITLE7=Picture on the wall
TTITLE8=Grievence blues
TTITLE9=Jazz blues
TTITLE10=Zolo go ( Zydeco )
TTITLE11=Fast life women
TTITLE12=Tim Moore`s farm
TTITLE13=Whiskey blues
TTITLE14=Traveller`s blues
TTITLE15=Bluebird blues
TTITLE16=Airplane blues
TTITLE17=Somebody`s got to go
TTITLE18=Ain`t it a shame
TTITLE19=Death bells
EXTD=
EXTT0=
EXTT1=
EXTT2=
EXTT3=
EXTT4=
EXTT5=
EXTT6=
EXTT7=
EXTT8=
EXTT9=
EXTT10=
EXTT11=
EXTT12=
EXTT13=
EXTT14=
EXTT15=
EXTT16=
EXTT17=
EXTT18=
EXTT19=
PLAYORDER=
